<svg width="820" height="200" version="1.1" xmlns="http://www.w3.org/2000/svg" desc="Created with imagetracer.js version 1.2.6" ><path fill="rgb(0,0,0)" stroke="rgb(0,0,0)" stroke-width="1" opacity="0" d="M 0 0 L 819.5 0 L 820 0.5 L 820 200 L 0.5 200 L 0 199.5 L 0 0 Z M 322 46 L 314 48 Q 311 49 312 53 Q 314 58 322 56 L 305 107 L 301 122 L 301 128 L 308 129 L 310 126 L 312 111 L 318 92 L 332 55 Q 340 56 347 61 Q 353 66 356 76 Q 358 87 355 95 L 347 112 Q 334 127 313 135 Q 301 137 299 130 L 295 132 L 297 138 L 304 143 L 319 142 Q 336 135 348 123 Q 347 120 350 121 L 360 106 L 364 90 L 365 87 Q 366 71 359 63 Q 349 46 322 46 Z M 489 68 L 487 69 L 484 72 L 479 84 L 475 87 Q 468 86 466 90 L 467 93 Q 472 92 475 95 L 470 114 L 472 126 L 479 131 L 487 131 L 492 128 L 495 123 L 494 119 L 482 124 L 479 120 L 480 107 L 484 93 L 487 92 L 503 92 Q 504 92 503 87 L 502 85 L 488 85 L 493 76 L 492 70 L 489 68 Z M 395 85 L 390 86 L 383 90 Q 372 98 368 114 Q 367 121 369 125 L 376 130 L 383 129 L 393 123 Q 401 115 405 104 Q 406 95 404 91 Q 401 86 395 85 Z M 509 86 L 506 89 L 510 95 L 507 109 L 507 123 Q 509 127 517 126 L 524 118 L 525 118 L 509 150 L 510 158 Q 511 160 516 159 Q 523 136 535 116 L 543 91 L 540 89 L 536 89 L 529 101 L 518 114 Q 519 116 517 115 L 515 116 L 518 102 Q 520 92 516 88 Q 515 85 509 86 Z M 422 87 L 421 95 L 412 113 L 411 121 L 416 125 L 419 125 L 421 122 Q 432 110 446 104 L 446 111 L 445 112 L 446 122 L 451 126 Q 456 127 457 125 L 454 118 L 454 116 L 454 102 L 453 100 L 448 95 L 438 98 L 428 105 L 426 106 L 431 97 L 430 90 Q 428 86 422 87 Z " /><path fill="rgb(0,0,0)" stroke="rgb(0,0,0)" stroke-width="1" opacity="0" d="M 392.5 94 L 396 94 L 396 102.5 L 392 111.5 L 387 118 L 380.5 122 L 377.5 122 Q 375 121 376 116.5 L 383 102.5 L 390.5 95 L 392.5 94 Z " /><path fill="rgb(186,148,148)" stroke="rgb(186,148,148)" stroke-width="1" opacity="0.8274509803921568" d="M 321.5 46 Q 348.8 45.8 359 62.5 Q 366 70.5 365 86.5 L 364 89.5 L 360 105.5 L 350 121 Q 347.3 119.9 348 122.5 Q 336.4 135.4 318.5 142 L 303.5 143 L 297 137.5 L 295 131.5 L 298.5 130 Q 300.8 137.3 312.5 135 Q 333.8 127.3 347 111.5 L 355 94.5 Q 357.5 87 356 75.5 Q 353.2 66.3 346.5 61 Q 340.4 56.3 332 55 L 318 91.5 L 312 110.5 L 310 125.5 L 307.5 129 L 301 128 L 301 121.5 L 305 106.5 L 322 56 Q 314 57.8 312 52.5 Q 311.3 48.8 313.5 48 L 321.5 46 Z " /><path fill="rgb(186,148,148)" stroke="rgb(186,148,148)" stroke-width="1" opacity="0.8274509803921568" d="M 488.5 68 L 492 69.5 L 493 75.5 L 488 84.5 L 501.5 85 L 503 86.5 Q 503.6 91.9 502.5 92 L 486.5 92 L 484 93 L 480 106.5 L 479 119.5 L 481.5 124 L 493.5 119 L 495 122.5 L 492 128 L 486.5 131 L 478.5 131 L 472 125.5 L 470 113.5 L 475 94.5 Q 472.5 91.9 467 93 L 466 89.5 Q 468 86 474.5 87 L 479 83.5 L 484 71.5 L 486.5 69 L 488.5 68 Z " /><path fill="rgb(186,148,148)" stroke="rgb(186,148,148)" stroke-width="1" opacity="0.8274509803921568" d="M 394.5 85 Q 401.1 85.9 404 90.5 Q 406.2 95.3 405 103.5 Q 401 115.5 392.5 123 L 382.5 129 L 375.5 130 L 369 124.5 Q 366.5 121 368 113.5 Q 371.5 98 382.5 90 L 389.5 86 L 394.5 85 Z M 393 94 L 391 95 L 383 103 L 376 117 Q 375 121 378 122 L 381 122 L 387 118 L 392 112 L 396 103 L 396 94 L 393 94 Z " /><path fill="rgb(186,148,148)" stroke="rgb(186,148,148)" stroke-width="1" opacity="0.8274509803921568" d="M 508.5 86 Q 514.5 84.5 516 87.5 Q 519.7 91.8 518 101.5 L 515 115.5 L 516.5 115 Q 518.8 115.8 518 113.5 L 529 100.5 L 535.5 89 L 539.5 89 L 543 91 L 535 115.5 Q 523.4 135.7 516 159 Q 511.4 160.3 510 157.5 L 509 149.5 L 524 119.5 L 516.5 126 Q 508.9 127.1 507 122.5 L 507 108.5 L 510 94.5 L 506 88.5 L 508.5 86 Z " /><path fill="rgb(186,148,148)" stroke="rgb(186,148,148)" stroke-width="1" opacity="0.8274509803921568" d="M 422 87 Q 428.3 85.5 430 89.5 L 431 96.5 L 427 105 L 441.5 96 L 447.5 95 L 453 99.5 L 454 101.5 L 454 115.5 L 454 117.5 L 457 124.5 Q 455.8 127.3 450.5 126 L 446 121.5 L 445 111.5 L 446 110.5 L 446 104 Q 431.5 110.3 421 121.5 L 418.5 125 L 415.5 125 L 411 120.5 L 412 112.5 L 421 94.5 L 422 87 Z " /></svg>